<?xml version="1.0" encoding="utf-8"?>
<!-- Generator: Adobe Illustrator 22.1.0, SVG Export Plug-In . SVG Version: 6.00 Build 0)  -->
<svg version="1.1" id="Layer_1" xmlns="http://www.w3.org/2000/svg" xmlns:xlink="http://www.w3.org/1999/xlink" x="0px" y="0px"
	 viewBox="0 0 744 744" style="enable-background:new 0 0 744 744;" xml:space="preserve">
<style type="text/css">
	.st0{fill:#EFC280;}
	.st1{fill:#EEDA80;}
	.st2{fill:#B4503B;}
	.st3{fill:#B85043;}
	.st4{fill:#6B5FAA;}
</style>
<g>
	<path class="st0" d="M694.2,374.5c0,181.6-147.2,328.8-328.8,328.8S36.5,556.1,36.5,374.5S183.7,45.6,365.4,45.6
		c73.5,0,141.3,24.1,196.1,64.8c14.2-7.9,30.6-12.4,48-12.4c54.5,0,98.6,44.2,98.6,98.6c0,28.4-12,54-31.2,72
		C688.1,301.9,694.2,337.5,694.2,374.5z"/>
	<circle class="st0" cx="608.9" cy="198.2" r="70.9"/>
	<path class="st1" d="M609.4,295.3c-54.5,0-98.6-44.2-98.6-98.6c0-19.7,5.8-38,15.7-53.4C480.7,111.4,425,92.7,364.9,92.7
		c-156.6,0-283.6,127-283.6,283.6s127,283.6,283.6,283.6c156.6,0,283.6-127,283.6-283.6c0-29.4-4.5-57.8-12.8-84.5
		C627.3,294,618.5,295.3,609.4,295.3z"/>
</g>
<g>
	<path class="st2" d="M201.2,566c7.3,0,13.2-2.9,17.8-8.6l9.5,9.8c-7.5,8.5-16.4,12.7-26.6,12.7c-10.2,0-18.6-3.2-25.2-9.7
		c-6.6-6.4-9.9-14.6-9.9-24.4c0-9.8,3.4-18,10.1-24.6c6.7-6.6,14.9-9.8,24.7-9.8c10.9,0,19.9,4.1,27.3,12.4l-9.2,10.4
		c-4.7-5.8-10.5-8.7-17.4-8.7c-5.6,0-10.3,1.8-14.3,5.4c-3.9,3.6-5.9,8.5-5.9,14.7c0,6.2,1.9,11.1,5.6,14.8
		C191.3,564.1,195.9,566,201.2,566z"/>
	<path class="st2" d="M304.9,512.8V526h-33v13.6h29.6v12.6h-29.6V566h34V579h-48.8v-66.2H304.9z"/>
	<path class="st2" d="M382.4,512.8h14.8V579h-14.8l-31.5-41.5V579h-14.8v-66.2h13.8l32.5,42.6V512.8z"/>
	<path class="st2" d="M458.6,525.6V579h-14.8v-53.4H425v-12.8h52.3v12.8H458.6z"/>
	<path class="st2" d="M520.1,526c-1.4,1.2-2.1,2.7-2.1,4.6c0,1.9,0.9,3.5,2.6,4.6c1.7,1.1,5.7,2.5,12,4c6.3,1.5,11.2,3.9,14.6,7
		c3.5,3.1,5.2,7.6,5.2,13.5c0,5.9-2.2,10.7-6.7,14.4s-10.3,5.5-17.6,5.5c-10.5,0-19.9-3.9-28.3-11.6l8.8-10.8
		c7.1,6.2,13.7,9.4,19.8,9.4c2.7,0,4.8-0.6,6.4-1.8c1.5-1.2,2.3-2.7,2.3-4.7c0-2-0.8-3.6-2.5-4.7c-1.6-1.2-4.9-2.4-9.8-3.6
		c-7.7-1.8-13.3-4.2-16.9-7.1c-3.6-2.9-5.4-7.5-5.4-13.8c0-6.3,2.3-11.1,6.8-14.5c4.5-3.4,10.1-5.1,16.9-5.1c4.4,0,8.8,0.8,13.3,2.3
		c4.4,1.5,8.3,3.7,11.6,6.4l-7.5,10.8c-5.7-4.4-11.7-6.5-17.8-6.5C523.4,524.3,521.5,524.9,520.1,526z"/>
</g>
<path class="st3" d="M620.5,173.7h8.7v-19.9h-6.9V140h-20.3v17.6c-15.6,6.8-25.5,21.5-25.5,38.1c0,16.6,9.9,31.3,25.5,38.1V252h20.3
	v-14.4h6.9v-19.9h-8.7c-12,0-21.3-9.5-21.3-21.6C599.2,183.8,608.8,173.7,620.5,173.7z"/>
<g>
	<polygon class="st2" points="150.6,304.7 193.7,266 193.7,494.1 252.5,494.1 252.5,146.6 150.6,236.6 	"/>
	<path class="st2" d="M510.5,197.2c0-3.6,0.2-7.2,0.6-10.8c-25.2-16.3-54.4-24.8-83.6-24.8c-78.1,0-156.2,59.4-156.2,168.7
		c0,109.4,78.1,168.1,156.2,168.1c77.5,0,155.6-58.7,155.6-168.1c0-13.9-1.3-27-3.6-39.3C539.5,278.6,510.5,241.2,510.5,197.2z
		 M427.5,447.8c-47.5,0-94.4-41.2-94.4-117.5c0-76.9,46.9-118.1,94.4-118.1c46.9,0,93.7,41.2,93.7,118.1
		C521.2,406.6,474.3,447.8,427.5,447.8z"/>
</g>
<path class="st2" d="M188,532.4c-3.9,3.6-5.9,8.5-5.9,14.7c0,6.2,1.9,11.1,5.6,14.8c3.7,3.7,8.2,5.6,13.5,5.6
	c7.3,0,13.2-2.9,17.8-8.6l9.5,9.8c-7.5,8.5-16.4,12.7-26.6,12.7c-10.2,0-18.6-3.2-25.2-9.7c-6.6-6.4-9.9-14.6-9.9-24.4
	c0-9.8,3.4-18,10.1-24.6c6.7-6.6,14.9-9.8,24.7-9.8c10.9,0,19.9,4.1,27.3,12.4l-9.2,10.4c-4.7-5.8-10.5-8.7-17.4-8.7
	C196.7,526.9,191.9,528.7,188,532.4z M271.9,553.7h29.6v-12.6h-29.6v-13.6h33v-13.2h-47.7v66.2h48.8v-13.1h-34V553.7z M382.4,556.9
	l-32.5-42.6h-13.8v66.2h14.8V539l31.5,41.5h14.8v-66.2h-14.8V556.9z M425,527.1h18.8v53.4h14.8v-53.4h18.8v-12.8H425V527.1z
	 M532.6,540.8c-6.3-1.5-10.3-2.9-12-4c-1.7-1.1-2.6-2.7-2.6-4.6c0-1.9,0.7-3.5,2.1-4.6c1.4-1.2,3.4-1.8,5.8-1.8
	c6.1,0,12.1,2.2,17.8,6.5l7.5-10.8c-3.3-2.8-7.1-4.9-11.6-6.4c-4.4-1.5-8.8-2.3-13.3-2.3c-6.8,0-12.4,1.7-16.9,5.1
	c-4.5,3.4-6.8,8.3-6.8,14.5c0,6.3,1.8,10.9,5.4,13.8c3.6,2.9,9.2,5.3,16.9,7.1c4.9,1.2,8.1,2.4,9.8,3.6c1.6,1.2,2.5,2.7,2.5,4.7
	c0,2-0.8,3.6-2.3,4.7c-1.5,1.2-3.7,1.8-6.4,1.8c-6.1,0-12.7-3.1-19.8-9.4l-8.8,10.8c8.4,7.8,17.8,11.6,28.3,11.6
	c7.3,0,13.1-1.8,17.6-5.5s6.7-8.5,6.7-14.4c0-5.9-1.7-10.4-5.2-13.5C543.7,544.7,538.8,542.3,532.6,540.8z M150.6,306.2l43.1-38.7
	v228.1h58.7V148.1l-101.9,90V306.2z M427.5,500c-78.1,0-156.2-58.7-156.2-168.1c0-109.4,78.1-168.7,156.2-168.7
	c29.2,0,58.5,8.4,83.6,24.8c-0.4,3.5-0.6,7.1-0.6,10.8c0,44.1,29,81.4,69,93.9c2.4,12.3,3.6,25.4,3.6,39.3
	C583.1,441.2,505,500,427.5,500z M427.5,449.3c46.9,0,93.7-41.2,93.7-117.5c0-76.9-46.9-118.1-93.7-118.1
	c-47.5,0-94.4,41.2-94.4,118.1C333.1,408.1,380,449.3,427.5,449.3z"/>
<path class="st4" d="M708,196.7c0-54.5-44.2-98.6-98.6-98.6c-17.4,0-33.8,4.5-48,12.4c-54.8-40.7-122.6-64.8-196.1-64.8
	c-181.6,0-328.8,147.2-328.8,328.8s147.2,328.8,328.8,328.8s328.8-147.2,328.8-328.8c0-37-6.1-72.6-17.4-105.8
	C696,250.7,708,225.1,708,196.7z M364.9,659.8c-156.6,0-283.6-127-283.6-283.6s127-283.6,283.6-283.6c60.1,0,115.8,18.7,161.6,50.6
	c-9.9,15.4-15.7,33.7-15.7,53.4c0,54.5,44.2,98.6,98.6,98.6c9.1,0,17.9-1.2,26.3-3.5c8.3,26.7,12.8,55.1,12.8,84.5
	C648.5,532.9,521.5,659.8,364.9,659.8z M608.9,269c-39.1,0-70.9-31.7-70.9-70.9c0-39.1,31.7-70.9,70.9-70.9s70.9,31.7,70.9,70.9
	C679.8,237.3,648,269,608.9,269z"/>
</svg>
