<?xml version="1.0" encoding="utf-8"?>
<!-- Generator: Adobe Illustrator 22.1.0, SVG Export Plug-In . SVG Version: 6.00 Build 0)  -->
<svg version="1.1" id="Layer_1" xmlns="http://www.w3.org/2000/svg" xmlns:xlink="http://www.w3.org/1999/xlink" x="0px" y="0px"
	 viewBox="0 0 744 744" style="enable-background:new 0 0 744 744;" xml:space="preserve">
<g>
	<path d="M204.2,523.4c6.9,0,12.8,2.9,17.4,8.7l9.2-10.4c-7.3-8.3-16.4-12.4-27.3-12.4c-9.7,0-17.9,3.3-24.7,9.8
		c-6.7,6.6-10.1,14.8-10.1,24.6c0,9.8,3.3,17.9,9.9,24.4c6.6,6.4,15,9.7,25.2,9.7c10.2,0,19-4.2,26.6-12.7l-9.5-9.8
		c-4.6,5.7-10.5,8.6-17.8,8.6c-5.3,0-9.8-1.9-13.5-5.6c-3.7-3.7-5.6-8.7-5.6-14.8c0-6.2,2-11,5.9-14.7
		C193.9,525.2,198.7,523.4,204.2,523.4z"/>
	<polygon points="273.9,550.2 303.5,550.2 303.5,537.6 273.9,537.6 273.9,524 306.9,524 306.9,510.8 259.1,510.8 259.1,577 
		307.9,577 307.9,564 273.9,564 	"/>
	<polygon points="384.4,553.4 351.9,510.8 338.1,510.8 338.1,577 352.9,577 352.9,535.5 384.4,577 399.2,577 399.2,510.8 
		384.4,510.8 	"/>
	<polygon points="152.6,302.7 195.7,264 195.7,492.1 254.5,492.1 254.5,144.6 152.6,234.6 	"/>
	<path d="M624.4,138h-20.3v17.6c-15.6,6.8-25.5,21.5-25.5,38.1c0,16.6,9.9,31.3,25.5,38.1V250h20.3v-14.4h6.9v-19.9h-8.7
		c-12,0-21.3-9.5-21.3-21.6c0-12.4,9.6-22.5,21.3-22.5h8.7v-19.9h-6.9V138z"/>
	<polygon points="427,523.6 445.8,523.6 445.8,577 460.6,577 460.6,523.6 479.3,523.6 479.3,510.8 427,510.8 	"/>
	<path d="M534.6,537.3c-6.3-1.5-10.3-2.9-12-4c-1.7-1.1-2.6-2.7-2.6-4.6c0-1.9,0.7-3.5,2.1-4.6c1.4-1.2,3.4-1.8,5.8-1.8
		c6.1,0,12.1,2.2,17.8,6.5l7.5-10.8c-3.3-2.8-7.1-4.9-11.6-6.4c-4.4-1.5-8.8-2.3-13.3-2.3c-6.8,0-12.4,1.7-16.9,5.1
		c-4.5,3.4-6.8,8.3-6.8,14.5c0,6.3,1.8,10.9,5.4,13.8c3.6,2.9,9.2,5.3,16.9,7.1c4.9,1.2,8.1,2.4,9.8,3.6c1.6,1.2,2.5,2.7,2.5,4.7
		c0,2-0.8,3.6-2.3,4.7c-1.5,1.2-3.7,1.8-6.4,1.8c-6.1,0-12.7-3.1-19.8-9.4l-8.8,10.8c8.4,7.8,17.8,11.6,28.3,11.6
		c7.3,0,13.1-1.8,17.6-5.5s6.7-8.5,6.7-14.4c0-5.9-1.7-10.4-5.2-13.5C545.7,541.2,540.8,538.8,534.6,537.3z"/>
	<path d="M710,194.7c0-54.5-44.2-98.6-98.6-98.6c-17.4,0-33.8,4.5-48,12.4c-54.8-40.7-122.6-64.8-196.1-64.8
		c-181.6,0-328.8,147.2-328.8,328.8s147.2,328.8,328.8,328.8s328.8-147.2,328.8-328.8c0-37-6.1-72.6-17.4-105.8
		C698,248.7,710,223.1,710,194.7z M523.2,328.3c0,76.2-46.9,117.5-93.7,117.5c-47.5,0-94.4-41.2-94.4-117.5
		c0-76.9,46.9-118.1,94.4-118.1C476.3,210.2,523.2,251.5,523.2,328.3z M366.9,657.8c-156.6,0-283.6-127-283.6-283.6
		s127-283.6,283.6-283.6c60.1,0,115.8,18.7,161.6,50.6c-8.2,12.7-13.6,27.5-15.2,43.3c-25.2-16.4-54.6-24.9-83.9-24.9
		c-78.1,0-156.2,59.4-156.2,168.7c0,109.4,78.1,168.1,156.2,168.1c77.5,0,155.6-58.7,155.6-168.1c0-14.1-1.3-27.3-3.7-39.7
		c9.5,3,19.6,4.7,30.1,4.7c9.1,0,17.9-1.2,26.3-3.5c8.3,26.7,12.8,55.1,12.8,84.5C650.5,530.9,523.5,657.8,366.9,657.8z M611.3,266
		c-38.6,0-69.9-31.3-69.9-69.9c0-38.6,31.3-69.9,69.9-69.9c38.6,0,69.9,31.3,69.9,69.9C681.2,234.7,649.9,266,611.3,266z"/>
</g>
</svg>
